<mxfile host="65bd71144e">
    <diagram name="Page-1" id="R-oQhzFSv7XG-evyQhH9">
        <mxGraphModel dx="1653" dy="710" grid="1" gridSize="10" guides="1" tooltips="1" connect="1" arrows="1" fold="1" page="0" pageScale="1" pageWidth="1169" pageHeight="827" background="#000000" math="0" shadow="0">
            <root>
                <mxCell id="0"/>
                <mxCell id="1" parent="0"/>
                <mxCell id="Akr3IfSS3m8vHxKkkIhM-1" value="" style="rounded=1;whiteSpace=wrap;html=1;fillColor=#647687;strokeColor=#314354;fontColor=#ffffff;" parent="1" vertex="1">
                    <mxGeometry x="-50" y="260" width="770" height="380" as="geometry"/>
                </mxCell>
                <mxCell id="Akr3IfSS3m8vHxKkkIhM-2" value="Kubernets Cluster" style="text;html=1;strokeColor=#6D1F00;fillColor=#a0522d;align=center;verticalAlign=middle;whiteSpace=wrap;rounded=1;fontColor=#ffffff;" parent="1" vertex="1">
                    <mxGeometry x="300" y="260" width="110" height="30" as="geometry"/>
                </mxCell>
                <mxCell id="Akr3IfSS3m8vHxKkkIhM-26" value="MySQL" style="rounded=1;whiteSpace=wrap;html=1;" parent="1" vertex="1">
                    <mxGeometry x="-20" y="570" width="720" height="60" as="geometry"/>
                </mxCell>
                <mxCell id="68" value="" style="group" vertex="1" connectable="0" parent="1">
                    <mxGeometry x="-40" y="20" width="790" height="180" as="geometry"/>
                </mxCell>
                <mxCell id="Akr3IfSS3m8vHxKkkIhM-29" value="" style="rounded=1;whiteSpace=wrap;html=1;glass=0;fillColor=#647687;strokeColor=#314354;fontColor=#ffffff;" parent="68" vertex="1">
                    <mxGeometry width="790" height="180" as="geometry"/>
                </mxCell>
                <mxCell id="Akr3IfSS3m8vHxKkkIhM-60" value="douyin" style="text;html=1;strokeColor=none;fillColor=none;align=center;verticalAlign=middle;whiteSpace=wrap;rounded=1;" parent="68" vertex="1">
                    <mxGeometry x="379" width="60" height="30" as="geometry"/>
                </mxCell>
                <mxCell id="26" value="" style="group" vertex="1" connectable="0" parent="68">
                    <mxGeometry x="162.63" y="42.5" width="113.75" height="95" as="geometry"/>
                </mxCell>
                <mxCell id="18" value="" style="rounded=1;whiteSpace=wrap;html=1;" vertex="1" parent="26">
                    <mxGeometry x="-6.25" y="-5" width="120" height="100" as="geometry"/>
                </mxCell>
                <mxCell id="Akr3IfSS3m8vHxKkkIhM-47" value="list" style="rounded=1;whiteSpace=wrap;html=1;glass=0;fillColor=#647687;strokeColor=#314354;fontColor=#ffffff;" parent="26" vertex="1">
                    <mxGeometry x="5" y="60" width="90" height="20" as="geometry"/>
                </mxCell>
                <mxCell id="4" value="action" style="rounded=1;whiteSpace=wrap;html=1;glass=0;fillColor=#647687;strokeColor=#314354;fontColor=#ffffff;" parent="26" vertex="1">
                    <mxGeometry x="5" y="30" width="90" height="20" as="geometry"/>
                </mxCell>
                <mxCell id="15" value="publish" style="text;html=1;strokeColor=none;fillColor=none;align=center;verticalAlign=middle;whiteSpace=wrap;rounded=1;" vertex="1" parent="26">
                    <mxGeometry x="20" width="60" height="30" as="geometry"/>
                </mxCell>
                <mxCell id="27" value="" style="group" vertex="1" connectable="0" parent="68">
                    <mxGeometry x="30" y="37.5" width="120" height="100" as="geometry"/>
                </mxCell>
                <mxCell id="12" value="" style="rounded=1;whiteSpace=wrap;html=1;" vertex="1" parent="27">
                    <mxGeometry width="120" height="100" as="geometry"/>
                </mxCell>
                <mxCell id="3" value="Login" style="rounded=1;whiteSpace=wrap;html=1;glass=0;fillColor=#647687;strokeColor=#314354;fontColor=#ffffff;gradientColor=none;aspect=fixed;" parent="27" vertex="1">
                    <mxGeometry x="15" y="60" width="90" height="20" as="geometry"/>
                </mxCell>
                <mxCell id="16" value="register" style="rounded=1;whiteSpace=wrap;html=1;glass=0;fillColor=#647687;strokeColor=#314354;fontColor=#ffffff;gradientColor=none;aspect=fixed;" vertex="1" parent="27">
                    <mxGeometry x="15" y="30" width="90" height="20" as="geometry"/>
                </mxCell>
                <mxCell id="24" value="user" style="text;html=1;strokeColor=none;fillColor=none;align=center;verticalAlign=middle;whiteSpace=wrap;rounded=1;" vertex="1" parent="27">
                    <mxGeometry x="30" width="60" height="30" as="geometry"/>
                </mxCell>
                <mxCell id="30" value="" style="group" vertex="1" connectable="0" parent="68">
                    <mxGeometry x="286.25" y="42.5" width="113.75" height="95" as="geometry"/>
                </mxCell>
                <mxCell id="31" value="" style="rounded=1;whiteSpace=wrap;html=1;" vertex="1" parent="30">
                    <mxGeometry x="-6.25" y="-5" width="120" height="100" as="geometry"/>
                </mxCell>
                <mxCell id="32" value="list" style="rounded=1;whiteSpace=wrap;html=1;glass=0;fillColor=#647687;strokeColor=#314354;fontColor=#ffffff;" vertex="1" parent="30">
                    <mxGeometry x="5" y="60" width="90" height="20" as="geometry"/>
                </mxCell>
                <mxCell id="33" value="action" style="rounded=1;whiteSpace=wrap;html=1;glass=0;fillColor=#647687;strokeColor=#314354;fontColor=#ffffff;" vertex="1" parent="30">
                    <mxGeometry x="5" y="30" width="90" height="20" as="geometry"/>
                </mxCell>
                <mxCell id="34" value="favorite" style="text;html=1;strokeColor=none;fillColor=none;align=center;verticalAlign=middle;whiteSpace=wrap;rounded=1;" vertex="1" parent="30">
                    <mxGeometry x="20" width="60" height="30" as="geometry"/>
                </mxCell>
                <mxCell id="50" value="" style="group" vertex="1" connectable="0" parent="68">
                    <mxGeometry x="660" y="42.5" width="110" height="95" as="geometry"/>
                </mxCell>
                <mxCell id="51" value="" style="rounded=1;whiteSpace=wrap;html=1;" vertex="1" parent="50">
                    <mxGeometry x="-6.043956043956044" y="-5" width="116.04395604395604" height="100" as="geometry"/>
                </mxCell>
                <mxCell id="52" value="action" style="rounded=1;whiteSpace=wrap;html=1;glass=0;fillColor=#647687;strokeColor=#314354;fontColor=#ffffff;" vertex="1" parent="50">
                    <mxGeometry x="4.835164835164835" y="60" width="87.03296703296704" height="20" as="geometry"/>
                </mxCell>
                <mxCell id="53" value="chat" style="rounded=1;whiteSpace=wrap;html=1;glass=0;fillColor=#647687;strokeColor=#314354;fontColor=#ffffff;" vertex="1" parent="50">
                    <mxGeometry x="4.835164835164835" y="30" width="87.03296703296704" height="20" as="geometry"/>
                </mxCell>
                <mxCell id="54" value="message" style="text;html=1;strokeColor=none;fillColor=none;align=center;verticalAlign=middle;whiteSpace=wrap;rounded=1;" vertex="1" parent="50">
                    <mxGeometry x="19.34065934065934" width="58.02197802197802" height="30" as="geometry"/>
                </mxCell>
                <mxCell id="36" value="" style="group" vertex="1" connectable="0" parent="68">
                    <mxGeometry x="410" y="42.5" width="320" height="130" as="geometry"/>
                </mxCell>
                <mxCell id="37" value="" style="rounded=1;whiteSpace=wrap;html=1;" vertex="1" parent="36">
                    <mxGeometry x="-6.25" y="-5" width="120" height="100" as="geometry"/>
                </mxCell>
                <mxCell id="38" value="list" style="rounded=1;whiteSpace=wrap;html=1;glass=0;fillColor=#647687;strokeColor=#314354;fontColor=#ffffff;" vertex="1" parent="36">
                    <mxGeometry x="5" y="60" width="90" height="20" as="geometry"/>
                </mxCell>
                <mxCell id="39" value="action" style="rounded=1;whiteSpace=wrap;html=1;glass=0;fillColor=#647687;strokeColor=#314354;fontColor=#ffffff;" vertex="1" parent="36">
                    <mxGeometry x="5" y="30" width="90" height="20" as="geometry"/>
                </mxCell>
                <mxCell id="40" value="comment" style="text;html=1;strokeColor=none;fillColor=none;align=center;verticalAlign=middle;whiteSpace=wrap;rounded=1;" vertex="1" parent="36">
                    <mxGeometry x="20" width="60" height="30" as="geometry"/>
                </mxCell>
                <mxCell id="67" value="" style="group" vertex="1" connectable="0" parent="68">
                    <mxGeometry x="530" y="37.5" width="120" height="100" as="geometry"/>
                </mxCell>
                <mxCell id="63" value="" style="rounded=1;whiteSpace=wrap;html=1;" vertex="1" parent="67">
                    <mxGeometry width="120" height="100" as="geometry"/>
                </mxCell>
                <mxCell id="41" value="" style="group" vertex="1" connectable="0" parent="67">
                    <mxGeometry x="5" width="110" height="95" as="geometry"/>
                </mxCell>
                <mxCell id="61" value="" style="group" vertex="1" connectable="0" parent="41">
                    <mxGeometry x="4.835164835164835" width="101.53483516483529" height="90" as="geometry"/>
                </mxCell>
                <mxCell id="43" value="friend/list" style="rounded=1;whiteSpace=wrap;html=1;glass=0;fillColor=#647687;strokeColor=#314354;fontColor=#ffffff;" vertex="1" parent="61">
                    <mxGeometry y="60" width="87.03296703296704" height="20" as="geometry"/>
                </mxCell>
                <mxCell id="44" value="follow/list" style="rounded=1;whiteSpace=wrap;html=1;glass=0;fillColor=#647687;strokeColor=#314354;fontColor=#ffffff;" vertex="1" parent="61">
                    <mxGeometry y="30" width="87.03296703296704" height="20" as="geometry"/>
                </mxCell>
                <mxCell id="49" value="relation" style="text;html=1;strokeColor=none;fillColor=none;align=center;verticalAlign=middle;whiteSpace=wrap;rounded=1;" vertex="1" parent="61">
                    <mxGeometry x="14.505494505494504" width="58.02197802197802" height="30" as="geometry"/>
                </mxCell>
                <mxCell id="95" value="" style="group" vertex="1" connectable="0" parent="1">
                    <mxGeometry x="-40" y="310" width="670" height="260" as="geometry"/>
                </mxCell>
                <mxCell id="81" value="" style="rounded=1;whiteSpace=wrap;html=1;" vertex="1" parent="95">
                    <mxGeometry width="626.0655737704918" height="214.7826086956522" as="geometry"/>
                </mxCell>
                <mxCell id="82" value="" style="group" vertex="1" connectable="0" parent="95">
                    <mxGeometry x="20.000819672131147" y="20.003043478260874" width="637.0491803278688" height="226.08695652173913" as="geometry"/>
                </mxCell>
                <mxCell id="83" value="Health" style="rounded=1;whiteSpace=wrap;html=1;" vertex="1" parent="82">
                    <mxGeometry x="428.3606557377049" y="90.43478260869566" width="131.80327868852459" height="67.82608695652175" as="geometry"/>
                </mxCell>
                <mxCell id="84" value="User&amp;nbsp;" style="rounded=1;whiteSpace=wrap;html=1;" vertex="1" parent="82">
                    <mxGeometry y="90.43478260869566" width="131.80327868852459" height="67.82608695652175" as="geometry"/>
                </mxCell>
                <mxCell id="85" value="Publish" style="rounded=1;whiteSpace=wrap;html=1;" vertex="1" parent="82">
                    <mxGeometry width="131.80327868852459" height="67.82608695652175" as="geometry"/>
                </mxCell>
                <mxCell id="87" value="favorite" style="rounded=1;whiteSpace=wrap;html=1;" vertex="1" parent="82">
                    <mxGeometry x="142.78688524590163" width="131.80327868852459" height="67.82608695652175" as="geometry"/>
                </mxCell>
                <mxCell id="88" value="Relation" style="rounded=1;whiteSpace=wrap;html=1;" vertex="1" parent="82">
                    <mxGeometry x="285.57377049180326" y="90.43478260869566" width="131.80327868852459" height="67.82608695652175" as="geometry"/>
                </mxCell>
                <mxCell id="91" value="Health" style="rounded=1;whiteSpace=wrap;html=1;" vertex="1" parent="82">
                    <mxGeometry x="428.3606557377049" y="90.43478260869566" width="131.80327868852459" height="67.82608695652175" as="geometry"/>
                </mxCell>
                <mxCell id="93" value="Health" style="rounded=1;whiteSpace=wrap;html=1;" vertex="1" parent="82">
                    <mxGeometry x="428.3606557377049" y="90.43478260869566" width="131.80327868852459" height="67.82608695652175" as="geometry"/>
                </mxCell>
                <mxCell id="94" value="Comment" style="rounded=1;whiteSpace=wrap;html=1;" vertex="1" parent="82">
                    <mxGeometry x="428.36426229508197" width="131.80327868852459" height="67.82608695652175" as="geometry"/>
                </mxCell>
                <mxCell id="89" value="Message" style="rounded=1;whiteSpace=wrap;html=1;" vertex="1" parent="95">
                    <mxGeometry x="160.0045901639344" y="110.00304347826085" width="131.80327868852459" height="67.82608695652175" as="geometry"/>
                </mxCell>
                <mxCell id="90" value="API" style="rounded=1;whiteSpace=wrap;html=1;" vertex="1" parent="95">
                    <mxGeometry x="309.99770491803275" y="20.00782608695647" width="131.80327868852459" height="67.82608695652175" as="geometry"/>
                </mxCell>
                <mxCell id="98" value="" style="group" vertex="1" connectable="0" parent="1">
                    <mxGeometry x="600" y="320" width="107.5" height="240" as="geometry"/>
                </mxCell>
                <mxCell id="Akr3IfSS3m8vHxKkkIhM-27" value="Redis" style="rounded=1;whiteSpace=wrap;html=1;glass=0;" parent="98" vertex="1">
                    <mxGeometry y="50" width="107.5" height="40" as="geometry"/>
                </mxCell>
                <mxCell id="Akr3IfSS3m8vHxKkkIhM-101" value="kafka" style="rounded=1;whiteSpace=wrap;html=1;glass=0;" parent="98" vertex="1">
                    <mxGeometry y="90" width="105" height="50" as="geometry"/>
                </mxCell>
                <mxCell id="8" value="JWT" style="rounded=1;whiteSpace=wrap;html=1;glass=0;" vertex="1" parent="98">
                    <mxGeometry y="140" width="105" height="50" as="geometry"/>
                </mxCell>
                <mxCell id="9" value="MINIO" style="rounded=1;whiteSpace=wrap;html=1;glass=0;" vertex="1" parent="98">
                    <mxGeometry y="190" width="105" height="50" as="geometry"/>
                </mxCell>
                <mxCell id="97" value="Nginx" style="rounded=1;whiteSpace=wrap;html=1;glass=0;" vertex="1" parent="98">
                    <mxGeometry x="2.5" width="105" height="50" as="geometry"/>
                </mxCell>
                <mxCell id="103" style="edgeStyle=none;html=1;entryX=0.5;entryY=0;entryDx=0;entryDy=0;" edge="1" parent="1" source="Akr3IfSS3m8vHxKkkIhM-29" target="Akr3IfSS3m8vHxKkkIhM-2">
                    <mxGeometry relative="1" as="geometry"/>
                </mxCell>
                <mxCell id="104" value="链路跟踪?" style="rounded=1;whiteSpace=wrap;html=1;glass=0;" vertex="1" parent="1">
                    <mxGeometry x="770" y="260" width="105" height="50" as="geometry"/>
                </mxCell>
            </root>
        </mxGraphModel>
    </diagram>
</mxfile>